<svg id="Layer_1" data-name="Layer 1" xmlns="http://www.w3.org/2000/svg" viewBox="0 0 128 128"><defs><style>.cls-1{fill:#0c91ae;}.cls-2{fill:#f0f0f0;}.cls-3{fill:#f36e51;}.cls-4{fill:#fff;}.cls-5{fill:none;}</style></defs><title>Artboard 3</title><rect class="cls-1" width="128" height="128"/><polygon class="cls-2" points="112 68 112 58 80 58 80 68 48 68 48 58 16 58 16 68 0 68 0 128 128 128 128 68 112 68"/><path class="cls-3" d="M84,99.7c0,2.43,0,4.86,0,7.28a7.17,7.17,0,0,1-3.64,6.32Q74,117,67.61,120.64a7.08,7.08,0,0,1-7.22,0Q54,117,47.63,113.28A7.05,7.05,0,0,1,44,107Q44,99.71,44,92.4a7.07,7.07,0,0,1,3.62-6.29Q54,82.37,60.38,78.78a7.1,7.1,0,0,1,7.26,0Q74,82.36,80.32,86.1A7.17,7.17,0,0,1,84,92.42C84,94.84,84,97.27,84,99.7Zm-37.79,0c0,2.4,0,4.8,0,7.19a5.16,5.16,0,0,0,2.68,4.65q6.17,3.6,12.38,7.13a5.23,5.23,0,0,0,5.49,0q6.18-3.53,12.34-7.11a5.16,5.16,0,0,0,2.71-4.68q0-7.15,0-14.3a5.14,5.14,0,0,0-2.68-4.65q-6.19-3.61-12.42-7.15a5.18,5.18,0,0,0-5.41,0q-6.22,3.55-12.42,7.16a5.13,5.13,0,0,0-2.67,4.61C46.18,94.9,46.2,97.29,46.2,99.67Z"/><path class="cls-3" d="M72.25,102.61v-2.43h4.67v7.12h-27c-.06-.67-.13-1.34-.17-2A19.64,19.64,0,0,1,51,96.7a8,8,0,0,1,5.05-5,8.34,8.34,0,0,1,2.39-.4c6.11,0,12.23,0,18.34,0l.29,0V96h-.51c-5.83,0-11.67,0-17.5,0a3.6,3.6,0,0,0-3.7,2.45,13.13,13.13,0,0,0-.88,4.22Z"/><path class="cls-4" d="M74.66,42.29a12.26,12.26,0,0,0,4.63,9A13.7,13.7,0,0,1,74.17,48a14.14,14.14,0,0,1-3.28-5.19,14.18,14.18,0,0,1,3.73-.61,12.09,12.09,0,0,1,.46-3.79,14.1,14.1,0,0,1,7.38,5.93A14.39,14.39,0,0,0,74.66,42.29Z"/><path class="cls-4" d="M86.06,27.57a14.51,14.51,0,0,0-7,4,12.15,12.15,0,0,0,9.64,3.1c-.46.53-3.94,1.31-5.92,1.31a14,14,0,0,1-6-1.35A14.27,14.27,0,0,1,79,31.6a12.13,12.13,0,0,1-2.36-3A14.09,14.09,0,0,1,86.06,27.57Z"/><path class="cls-4" d="M64,46.65a12.18,12.18,0,0,1,3-2.36,14,14,0,0,1,1,9.39,15.42,15.42,0,0,0-1.51-3.75A14.36,14.36,0,0,0,64,46.7a12.23,12.23,0,0,0-3.12,9.66,13.13,13.13,0,0,1-1.23-4.49,14.09,14.09,0,0,1,1.29-7.43A14.1,14.1,0,0,1,64,46.65Z"/><path class="cls-4" d="M76.74,13.16a14.34,14.34,0,0,0-2.08,7.76,11.85,11.85,0,0,0,5-1.32,12,12,0,0,0,4-3.3c-.06.92-1.92,3.83-3.26,5.14a14.26,14.26,0,0,1-5.18,3.26A14.56,14.56,0,0,1,74.62,21a11.89,11.89,0,0,1-3.76-.44C71.33,18.19,74.34,14.42,76.74,13.16Z"/><path class="cls-4" d="M64,16.5a12.23,12.23,0,0,0,3.12-9.64,13.51,13.51,0,0,1,1.29,5.5A14,14,0,0,1,67,18.76,14.45,14.45,0,0,1,64,16.55a12.38,12.38,0,0,1-3,2.36,14.12,14.12,0,0,1-1-9.39,15.53,15.53,0,0,0,1.51,3.75A14.37,14.37,0,0,0,64,16.5Z"/><path class="cls-4" d="M52.77,38.48c.14.65.3,1.26.39,1.87s.13,1.23.2,1.89a11.7,11.7,0,0,1,3.77.45,14,14,0,0,1-5.91,7.36,14.59,14.59,0,0,0,2.1-7.77,11.81,11.81,0,0,0-5,1.31,12.67,12.67,0,0,0-4,3.25A14.15,14.15,0,0,1,52.77,38.48Z"/><path class="cls-4" d="M39.28,28.45a14.21,14.21,0,0,1,11.86.07,14.14,14.14,0,0,1-2.22,3.07,12.45,12.45,0,0,1,2.34,3c-1.76,1.28-6.93,1.87-9.38,1.05a14.28,14.28,0,0,0,7-4A12.26,12.26,0,0,0,39.28,28.45Z"/><path class="cls-4" d="M53.31,20.94a12.07,12.07,0,0,0-2.46-6.83,11.91,11.91,0,0,0-2-2.09.33.33,0,0,1-.11-.13,14.18,14.18,0,0,1,8.38,8.46,14.2,14.2,0,0,1-3.76.61Z"/><path class="cls-4" d="M53.33,21a11.52,11.52,0,0,1-.45,3.79,14.24,14.24,0,0,1-7.39-5.91c.61.31,1.17.62,1.76.88a13.62,13.62,0,0,0,5.22,1.2l.85,0Z"/><path class="cls-4" d="M79.73,48.61a1.25,1.25,0,0,1-1.26-1.25,1.28,1.28,0,1,1,1.26,1.25Z"/><path class="cls-4" d="M62.73,53.88A1.26,1.26,0,1,1,64,55.15,1.26,1.26,0,0,1,62.73,53.88Z"/><path class="cls-4" d="M85,31.58a1.26,1.26,0,1,1,1.26,1.28A1.26,1.26,0,0,1,85,31.58Z"/><path class="cls-4" d="M62.71,9.33A1.27,1.27,0,0,1,64,8a1.27,1.27,0,1,1,0,2.54A1.26,1.26,0,0,1,62.71,9.33Z"/><path class="cls-4" d="M79.73,17.11A1.27,1.27,0,1,1,81,15.84,1.28,1.28,0,0,1,79.73,17.11Z"/><path class="cls-4" d="M49.49,47.44a1.25,1.25,0,0,1-1.35,1.18A1.27,1.27,0,0,1,47,47.25a1.28,1.28,0,0,1,1.36-1.16A1.26,1.26,0,0,1,49.49,47.44Z"/><path class="cls-4" d="M49.49,15.85a1.26,1.26,0,1,1-1.26-1.25A1.25,1.25,0,0,1,49.49,15.85Z"/><path class="cls-4" d="M41.71,30.35A1.25,1.25,0,0,1,43,31.62a1.27,1.27,0,0,1-1.27,1.25,1.25,1.25,0,0,1-1.24-1.26A1.23,1.23,0,0,1,41.71,30.35Z"/><polyline class="cls-5" points="128 68 112 68 112 58 80 58 80 68 48 68 48 58 16 58 16 68 0 68"/></svg>